
<svg xmlns="http://www.w3.org/2000/svg" xml:space="preserve" viewBox="0 0 105.83 105.83">
  <path 
    d="M32.664 101.44c-.034-3.26 1.28-6.672.628-9.867-2.36-2.006-1.938-7.649-1.939-8.97-.839-.266-1.556-.48-2.782-1.039.325-.658 2.262-2.716 3.646-4.08-2.358-1.249-5.733-2.207-8.271-3.642 1.65-2.239 4.326-5.478 5.572-7.386-2.245-1.507-4.882-4.056-7.026-6.019.69-3.787.967-8.419 1.493-10.837-5.612-3.754-13.829-8.666-19.523-12.338-.369-4.842 1.33-18.002 3.72-22.606 9.655 3.022 23.265 20.198 28.84 27.835-1.73 5.38-4.356 9.896-6.526 15.082 1.022 1.392 4.693 4.092 8.025 6.493-1.257 1.705-6.187 5.905-7.155 7.447.298.437 1.163.91 2.462 1.428 5.756-9.607 14.579-15.294 17.444-26.6.905-3.57 2.017-7.086 3.293-11.575-10.085-1.882-21.533-7.455-27.732-15.847 10.449-3.765 28.375 4.11 35.7 9.228 5.975-2.86 13.1-2.685 19.286-.928-2.852-7.476-4.163-15.814-2.71-23.729 8.025 4.466 9.881 22.551 9.956 28.07 2.846 3.64 2.387 8.544 4.769 12.405 3.257 4.824-1.122 9.668-4.289 13.117 2.846 1.108 6.922 3.327 10.71 4.263 2.446.528 2.29 2.307 1.458 2.406.65.521 1.526 1.506.127 3.12 1.269 3.765-4.053 3.785-7.18 5.033-5.106 1.444-10.44 1.57-15.674 2.112-1.811 5.491.834 12.172-2.769 17.225-2.071 4.068-8.318 2.82-7.845 8.215-1.742 4.803-5.569.13-4.694-3.353-1.303-4.086-8.044-5.094-11.676-3.382-4.13 1.947-9.316 2.263-13.196 3.34-1.03 2.343-1.002 7.45-4.646 6.562-1.169-.012-1.788.356-1.498-1.184z" 
    fill="#94a3b8cc"
  />
</svg>