<svg xmlns="http://www.w3.org/2000/svg" xml:space="preserve" viewBox="0 0 68 68">
  <defs>
    <filter id="a" width="1.19" height="1.54" x="-.09" y="-.27" color-interpolation-filters="sRGB">
      <feGaussianBlur stdDeviation="2.24"/>
    </filter>
  </defs>
  <path 
    fill="#101e29" 
    fill-opacity=".37" 
    color="#000" 
    filter="url(#a)" 
    transform="translate(-44.34 -105.72)"
    d="M87.62 139.59c-1.33.5-2.73.94-4.01 1.48-.52.54-1.18 1.02-1.01 1.86l-.24 3.58c-1.7.01-2.69 1.97-4.1.28-2.07-.9-4.61-.15-6.1 1.48-.14-.74-.04-1.76-1.1-1.38l-2.88.07c-1.08 1.02-.5 2.47-.58 3.77.16.94-.52 2.78-.9.93-.88-1.42.57-4.38-.56-4.95l-2.23.17.27-4.29-5.04 1c-.22.7-.77 1.32-.56 2.12l.06 3.87-3.43-5.46c-1.69.32-3.41.63-5.08.97-.31.67-.8 1.33-.33 2.06.35.56.12 1.91 1 1.74.9-.31 1.24.45 1.64 1.1l6.48 9.6 3.76-.9c.34-.71.73-1.4.63-2.2 2.32 1.59 5.87 1.16 7.55-1.17 1.83 2.2 5.24 2.27 7.58.9 1.5.83 2.68.67 3.96.97l3.3.08c.99-1.45 2.77 1.05 4.3.3 1.24-.21 2.43-.47 3.67-.1.69-.01 1.55.58 2.02-.16.52-.27 1.22-1.49 1.62-1.12.42.68.66 1.6 1.2 2.14l4.86 1.07c.27-.5 1.47-.84.86-1.48l-2.86-5.74 5.71-5.09-5.32-.76-2.26 2.07-1.37-2.75c-1.72-.39-3.56-.87-5.22-1.2-.44.53-1.51.94-.76 1.67.5.88.9 1.54-.48.77-1.44-.9-3.9.9-4.5.52l.45-7.82zm-14.35 4.04c-.52.31-1.15.56-.05.73 1.11-.03.66-.42.1-.68zm-.66.88c.06.82-.09 1.53-.3 2.13 1.12.2.88-1.64.72-2.12h-.42zm.76.02c.13.54-.46 2.06.51 1.43-.32-.93 1.26-1.47.02-1.28.11-.3-.4-.08-.53-.15zm2.23.02c-.95-.16-1.2.19-1.04 1.22.63 1.12.44-1.4.93-.52-.35 1.09.9.9.53-.1.03-.28-.02-.64-.42-.6zm.52.02c.28.56.1 1.73 1.03 1.45.13-1.35.48.81 1.05-.21.5-.61.37-1.86-.26-.86-.04.93-.62-1.35-.94.1-.23.75-.08-1.02-.88-.48zm3.65.05c-.82-.17-1.2.17-1.01 1.22.61 1.12.46-1.4.92-.53-.43 1.24 1.35 1.97.53.51-.06-.4.24-1.22-.44-1.2zm-4 4.66c1.49.32-.44 1.15-.86 1.72-.65-.58-.02-1.8.87-1.72zm14.6.25c1.86.35.14 1.06-.7 1.35-1.05.63-.1-1.82.7-1.35zm4.57 2.04c.77.74-.26 1.15-.73 1.66-.52 1.06-1.05-.22-.96-.67.54-.35 1.34-.43 1.7-.99z" 
  />
</svg>