<svg xmlns="http://www.w3.org/2000/svg" xmlns:xlink="http://www.w3.org/1999/xlink" xml:space="preserve" viewBox="0 0 68 30">
  <defs>
    <linearGradient id="a">
      <stop offset="0" stop-color="#26417a"/>
      <stop offset="1" stop-color="#566b9d"/>
    </linearGradient>
    <linearGradient xlink:href="#a" id="b" x1="53.9" x2="53.69" y1="94.94" y2="90.78" gradientTransform="matrix(3.46 0 0 3.46 -122.64 -220.33)" gradientUnits="userSpaceOnUse"/>
  </defs>
  <path 
    fill="url(#b)" 
    color="#000" 
    transform="translate(-44.6 -84.1)"
    d="m83.91 90.05-.97 1.04-.36 5.45-7.48 4.23-6.64-4.8-.68 1.04c.1 1.98.38 4.78-.69 4.79l-7.62-9.18-.62 1.24.1 6.95-8.53-6.72-.58 1.25.76 2.56 1.37-.02 7.23 10.72 3.77-.9.56-1.26.07-.95a5.83 5.83 0 0 0 5.22.59 5.19 5.19 0 0 0 2.32-1.75c1.52 1.9 4.81 2.48 7.59.9.95.68 2 .78 3.13.59l-.03.36 4.16.1.59-.63a6.64 6.64 0 0 0 5.69.56l3.25.5 1.96-1.73 1.19 2.33 4.98 1.1 1.07-1.04-11.5-13.92-1.12 1.03 2.83 5.53-5.85.7zm-10.35 2.6-.37.41-.28-.29-.01.58 1.3.02v-.58l-.3.28zm-.67.87-.04 1.5c0 .18-.1.18-.26.18v.45c.41.04.79-.06.8-.48l.05-1.64zm.76.02-.04 1.63.55-.2.02-.73c0-.22.3-.21.5-.21l.02-.48c-.28 0-.43.1-.52.26v-.27zm2.24.02c-.17 0-.35.05-.49.12l-.04-.11h-.5l-.02 1.42h.54l.01-.85c.12-.15.39-.2.38 0l-.01.87h.53l.02-1.03c0-.31-.19-.42-.42-.42zm.5.02.43 1.44h.61l.2-.57.2.58.57.01.52-1.42h-.58l-.24.72-.21-.74h-.44l-.26.73-.21-.74zm3.67.05a.9.9 0 0 0-.46.14v-.13l-.54-.01-.03 1.43h.54l.02-.84c.1-.17.38-.22.37-.02l-.01.87c-.01.53.33.69.78.72v-.45c-.2-.01-.25-.09-.24-.26l.01-1.04c.01-.3-.2-.42-.44-.41zm15.17 6.95.36.72-2.65 2.41-.69-1.53 2.78-1.32z" 
  />
  <path 
    fill="#ffe31d"
    transform="translate(-44.6 -84.1)"
    d="m98.7 103.2-2.24 2-3.88-.6 4.66-4.24-3.2-6.25 4.06.94 1.54 3.1 2.55-2.33 4.13.6-5.23 4.66 2.8 5.63-3.83-.84z" 
  />
  <path 
    fill="#ffe31d" 
    transform="translate(-44.6 -84.1)"
    d="M93.89 104.2c-1.8.93-4.41.97-5.89 0-3.22-2.14-2.3-6.6.72-7.61 3.15-1.05 4.88-.1 6.45 3.11l-5.41 2.3c1.16.34 2.24-.3 2.97-.58zm-4.5-3.78 2.56-1.18c-.27-.62-.86-1.31-2.08-.77-.7.32-.68 1.32-.48 1.95z" 
  />
  <path 
    fill="#ffe31d" 
    color="#000" 
    transform="translate(-44.6 -84.1)"
    d="m52.78 96.16-1.26.02-.52-1.74 4.28-.8 4.74 7.54-.13-8.2 4.08-.82-.86 13.91-3.13.75z" 
  />
  <path 
    fill="#ffe31d" 
    transform="translate(-44.6 -84.1)"
    d="M66.46 96.33c.05 2.23-.74 5.43 1.28 5.88 1.9.42 1.26-4.11 1.08-5.79l3-.08c.74 2.76.93 7.04-2.14 8.24-1.52.6-3.42.6-4.72-.4-2.46-1.9-2.03-7.76-2.03-7.76zm17.87-5.96 3.08-1.1-.9 15.5-3.22-.08.03-.43c-.54.17-1.09.3-1.6.2-2.4-.53-3.24-2.23-3.13-4.27a4.57 4.57 0 0 1 5.37-4.2z" 
  />
  <path 
    fill="#ffe31d" 
    transform="translate(-44.6 -84.1)"
    d="M80.55 102.75c-1.41 1.33-3.95 2.17-5.57 1.69-3.7-1.1-4.2-5.2-1.77-7.25 1.86-1.56 4.45-1.8 7.09.38.17.14.44.36.12.5l-4.1 3.65c1.21-.02 2-1.03 2.34-1.42zm-3.33-4.16c-.64-.51-1.23-1-2.23-.1-.64.57-.14 1.78.1 2.02z" 
  />
  <path 
    fill="#e4b134" 
    fill-opacity=".58"
    color="#000" 
    transform="translate(-44.6 -84.1)"
    d="m87.33 89.3-3 1.07-.06.88 2.07-.75-.83 14.24.92.03.9-15.48zm-23.44 2.88-4 .8.01.92 3-.6-.8 12.98.92-.2.55-8.72 1.8-.11c-.1 1.67-.2 3.41.43 5 .29.65 1.01 1.2 1.75.98.82-.2 1.7-1.1 1.8-1.9l-2.3.79-.98-5.79c-.22 0-.19-.01-.41-.02l-2.04.15zm-8.97 1.52-3.92.74.26.88 3.22-.6 5.44 8.67.58-.56zm39.2.42.66 1.47 2.48.48 1.72 3.45 2.84-2.6 2.94.43-4.76 4.24 2.38 4.79 1.42.11-2.7-5.28 5-4.6-4.13-.58-2.33 2.12-1.52-3.1zm-17.65 1.83a4.3 4.3 0 0 0-3.27 1.79c2.24-1.55 4.22-1.11 6.04.51-.11.2-.2.38-.27.55l-3.78 3.52c.85.3 1.33.11 2-.25.28-.19.59-.48.89-.75l1.48 1.76.93-.3-2.1-2.69 2.05-2.1-.13-.13a4.1 4.1 0 0 1 3.5-.75l.56-.57-.5-.56c-2.03-.07-3.27.64-4.03 1.45a5.02 5.02 0 0 0-3.37-1.48zm14.33.14c-1.37.02-2.77.7-3.75 2.1 2.94-2.14 6.12-1.23 7.11 1.6l1-.3a4.48 4.48 0 0 0-4.36-3.4Zm-19.18.36c-.93.01-1.85.05-2.78.07l.57.91 1.42.04c.28 2.72.83 6.61-2.3 7.4 4.33-.67 3.68-5.17 3.1-8.42zM82.68 98c-1.1.27-1.62 1.75-1 2.67.38.46 1.01.57 1.57.6l.35-.37zm7.02.16c-.7.29-1.32.74-1.36 1.54-.03.5.1 1 .28 1.48 1.09-.51 2.2-1 3.28-1.53l.57-.38-3.3 1.02zm3 3.3-2.74.26-1.02.45c1.15.75 1.99.49 3.08 0l.89 2.13.9-.37z" 
  />
  <path 
    fill="#3884be" 
    color="#000" 
    transform="translate(-44.6 -84.1)"
    d="m87.9 88.6-4 1.44-.37 5.46c-1.42-.07-2.67.3-3.53 1.23a5.15 5.15 0 0 0-2.98-1.3c-2-.05-3.36.61-4.59 1.85l-.23-1.4-3.74.1c.2 1.88.64 3.74-.06 5.37-.33.78-.93.49-1.17-.03-.78-1.7-.5-3.72-.32-5.63l-2.71.2.27-4.3-5.05 1.02.11 6.94-4.04-6.42-5.08.96.77 2.56 1.37-.03 7.22 10.72 3.77-.9.17-2.79c1.38 1.72 4.43 1.98 6.07 1.39a3.92 3.92 0 0 0 2.18-1.93c1.45 2.04 4.85 2.7 7.71 1.08.96.7 2.04.77 3.15.58l-.03.37 4.15.1.06-1.04c1.44 1.28 3.81 1.77 6.26.96l3.34.52 1.96-1.74 1.19 2.33 4.98 1.1-3.08-6.18 5.71-5.09-5.32-.76-2.26 2.06-1.37-2.75-5.23-1.21 3.5 6.82-2.75 2.5-.72-1.62 2.77-1.32c-.75-1.51-1.91-3.11-3.27-3.66-2.07-.85-3.69-.34-5.28.62zm-.99 1.33-.83 14.37-2.3-.05.05-.64c-1.18.5-2.67.48-3.32.03.34-.25.57-.48.87-.77l-2.32-2.76 2.18-2.17-.55-.59c1.14-1.05 2.33-1.06 3.69-.82l.38-5.83zm-23.43 2.8-.2 3.22-.8.06a19.6 19.6 0 0 0 .42 6.03l-.23 3.67-2.49.6-7.16-10.62-1.16.03-.28-.92 3.48-.66 5.44 8.67-.15-9.45zm31.42 2.04 2.89.68 1.72 3.44 2.84-2.59 2.93.42-4.76 4.25 2.53 5.09-2.68-.6-1.53-3-.45.4-2.08 1.85-1.63-.25-.36-.83 3.49-3.17zm-17.98 1.55c.99.05 1.99.75 2.95 1.67l-4.22 3.92c.86.3 1.34.1 2-.26.29-.19.6-.48.9-.74l1.48 1.75c-2.7 2.14-6.25 1.63-7.41-.18a3.58 3.58 0 0 1-.4-2.79c.23-.96.79-1.85 1.45-2.37a4.73 4.73 0 0 1 3.25-1zm15.43.66c.94.33 1.67 1.32 2.32 2.48l-5.2 2.47c.73.55 1.24.5 1.98.36.33-.1.71-.28 1.08-.44l.88 2.12c-2.68 1.02-5.23.39-6.33-1.05l.28-4.87a4.84 4.84 0 0 1 4.99-1.07zm-26.4-.3c-.17 1.84-.2 3.65.46 5.05.68 1.47 2.12 1.21 2.8.04.62-1.07.4-3.3.24-4.9l1.94-.06c.1.58.19 1.19.25 1.8a4.74 4.74 0 0 0-.21 3.46 3.1 3.1 0 0 1-1.97 2.1c-1.47.56-3.4.51-4.54-.58-1.86-1.81-1.62-4.45-1.54-6.73zm17.65 4.22.12-1.52c-1.27-.31-.76-1.64-.01-1.81-2.82.27-2.73 3.33-.11 3.33zm-8.76-2.75c-.84.74-.6 1.9.16 2.82l2.66-2.42c-1-1.04-2.06-1.07-2.82-.4zm14.98-.05c-1.02.45-1.14 1.65-.7 2.75l3.37-1.57c-.62-1.08-1.38-1.74-2.67-1.18Zm-14.65 1.93c-.44-.52-.2-1.24.15-1.48.64-.45 1.1-.26 1.44.1zm16.46-.88-2.01.89c-.2-.64-.02-1.22.54-1.41.72-.24 1.22 0 1.47.52z" 
  />
</svg>